<svg width="18" height="18" viewBox="0 0 18 18" fill="none" xmlns="http://www.w3.org/2000/svg">
<path d="M7.2521 0C3.25579 0 0 3.25575 0 7.25209C0 11.2484 3.25578 14.5042 7.2521 14.5042C8.52587 14.5042 9.72689 14.1778 10.7687 13.5977L14.5902 17.4191C15.3647 18.1936 16.6446 18.1936 17.4191 17.4191C18.1936 16.6446 18.1936 15.3647 17.4191 14.5902L13.5977 10.7687C14.1775 9.72705 14.5042 8.52555 14.5042 7.25209C14.5042 3.25575 11.2484 0 7.2521 0ZM7.2521 1.50043C10.4375 1.50043 13.0038 4.06666 13.0038 7.25209C13.0038 10.4375 10.4375 13.0038 7.2521 13.0038C4.06669 13.0038 1.50044 10.4375 1.50044 7.25209C1.50044 4.06666 4.06669 1.50043 7.2521 1.50043ZM12.7146 12.0113L16.3563 15.653C16.5614 15.8581 16.5614 16.1512 16.3563 16.3563C16.1512 16.5614 15.8581 16.5614 15.653 16.3563L12.0113 12.7146C12.2615 12.4963 12.4963 12.2615 12.7146 12.0113Z" fill="white"/>
</svg>
