<svg width="44" height="26" viewBox="0 0 44 26" fill="none" xmlns="http://www.w3.org/2000/svg">
<path d="M22 0C20.2982 0 18.6661 0.67604 17.4627 1.8794C16.2594 3.08276 15.5833 4.71486 15.5833 6.41667C15.5833 8.11847 16.2594 9.75058 17.4627 10.9539C18.6661 12.1573 20.2982 12.8333 22 12.8333C23.7018 12.8333 25.3339 12.1573 26.5373 10.9539C27.7406 9.75058 28.4167 8.11847 28.4167 6.41667C28.4167 4.71486 27.7406 3.08276 26.5373 1.8794C25.3339 0.67604 23.7018 0 22 0ZM22 3.66667C22.7293 3.66667 23.4288 3.9564 23.9445 4.47212C24.4603 4.98785 24.75 5.68732 24.75 6.41667C24.75 7.14601 24.4603 7.84549 23.9445 8.36121C23.4288 8.87694 22.7293 9.16667 22 9.16667C21.2707 9.16667 20.5712 8.87694 20.0555 8.36121C19.5397 7.84549 19.25 7.14601 19.25 6.41667C19.25 5.68732 19.5397 4.98785 20.0555 4.47212C20.5712 3.9564 21.2707 3.66667 22 3.66667ZM10.0833 5.5C8.86776 5.5 7.70197 5.98289 6.84243 6.84243C5.98289 7.70197 5.5 8.86776 5.5 10.0833C5.5 11.8067 6.47167 13.2917 7.865 14.08C8.525 14.4467 9.27667 14.6667 10.0833 14.6667C10.89 14.6667 11.6417 14.4467 12.3017 14.08C12.98 13.695 13.5483 13.145 13.97 12.485C12.6317 10.7433 11.9167 8.61667 11.9167 6.41667C11.9167 6.25167 11.9167 6.06833 11.9167 5.90333C11.3667 5.64667 10.7433 5.5 10.0833 5.5ZM33.9167 5.5C33.2567 5.5 32.6333 5.64667 32.0833 5.90333C32.0833 6.06833 32.0833 6.25167 32.0833 6.41667C32.0833 8.61667 31.3683 10.7433 30.03 12.485C30.25 12.8333 30.4883 13.1083 30.7633 13.3833C31.0567 13.6583 31.35 13.8967 31.6983 14.08C32.3583 14.4467 33.11 14.6667 33.9167 14.6667C34.7233 14.6667 35.475 14.4467 36.135 14.08C37.5283 13.2917 38.5 11.8067 38.5 10.0833C38.5 8.86776 38.0171 7.70197 37.1576 6.84243C36.298 5.98289 35.1322 5.5 33.9167 5.5ZM22 16.5C17.71 16.5 9.16667 18.645 9.16667 22.9167V25.6667H34.8333V22.9167C34.8333 18.645 26.29 16.5 22 16.5ZM8.635 17.5083C5.09667 17.93 0 19.7267 0 22.9167V25.6667H5.5V22.1283C5.5 20.2767 6.765 18.7367 8.635 17.5083ZM35.365 17.5083C37.235 18.7367 38.5 20.2767 38.5 22.1283V25.6667H44V22.9167C44 19.7267 38.9033 17.93 35.365 17.5083ZM22 20.1667C24.805 20.1667 27.94 21.0833 29.755 22H14.245C16.06 21.0833 19.195 20.1667 22 20.1667Z" fill="white"/>
</svg>
