<svg width="34" height="33" viewBox="0 0 34 33" fill="none" xmlns="http://www.w3.org/2000/svg">
<path d="M22.0393 32.3281C21.1438 32.3294 20.2793 32.0009 19.6107 31.4053L17.4857 29.5231C17.1579 29.5231 16.83 29.5231 16.5143 29.5231L14.3771 31.4174C13.8047 31.9239 13.0874 32.2375 12.3268 32.3138C11.5662 32.39 10.8009 32.2251 10.1393 31.8424L6.86071 29.9481C6.19826 29.566 5.67289 28.985 5.35905 28.2876C5.04521 27.5902 4.95883 26.8117 5.11214 26.0624L5.61 23.6338C5.65151 23.3565 5.59573 23.0733 5.45214 22.8324C5.33682 22.5655 5.12401 22.3527 4.85714 22.2374L2.48929 21.5088C1.76544 21.2672 1.13575 20.8043 0.689113 20.1855C0.242472 19.5668 0.00142765 18.8234 0 18.0603V14.2717C0.00142765 13.5086 0.242472 12.7652 0.689113 12.1464C1.13575 11.5276 1.76544 11.0648 2.48929 10.8231L4.85714 10.0945C5.11198 9.99799 5.32331 9.81254 5.45214 9.5724C5.59573 9.3315 5.65151 9.04833 5.61 8.77097L5.11214 6.3424C4.95883 5.59314 5.04521 4.81464 5.35905 4.11722C5.67289 3.4198 6.19826 2.83885 6.86071 2.45668L10.1393 0.562399C10.8009 0.17967 11.5662 0.0147681 12.3268 0.0910424C13.0874 0.167317 13.8047 0.480902 14.3771 0.987399L16.5143 2.80883C16.8379 2.7915 17.1621 2.7915 17.4857 2.80883L19.6229 0.914542C20.1953 0.408045 20.9126 0.0944596 21.6732 0.0181853C22.4338 -0.058089 23.1991 0.106812 23.8607 0.489542L27.1393 2.38383C27.8017 2.76599 28.3271 3.34695 28.6409 4.04436C28.9548 4.74178 29.0412 5.52029 28.8879 6.26954L28.39 8.69811C28.3485 8.97547 28.4043 9.25864 28.5479 9.49954C28.6632 9.76641 28.876 9.97922 29.1429 10.0945L31.4743 10.8717C32.1971 11.1044 32.8292 11.5573 33.282 12.1669C33.7349 12.7765 33.9859 13.5124 34 14.2717V18.0603C34.0011 18.8254 33.7612 19.5716 33.3144 20.1928C32.8676 20.8139 32.2365 21.2787 31.5107 21.521L29.1429 22.2374C28.888 22.334 28.6767 22.5194 28.5479 22.7595C28.4043 23.0004 28.3485 23.2836 28.39 23.561L28.8879 25.9895C29.0412 26.7388 28.9548 27.5173 28.6409 28.2147C28.3271 28.9121 27.8017 29.4931 27.1393 29.8753L23.8607 31.7695C23.3139 32.114 22.6852 32.3068 22.0393 32.3281ZM17.8743 27.0945C18.1846 27.092 18.4858 27.1995 18.7243 27.3981L21.2379 29.6324C21.4279 29.801 21.666 29.9057 21.9187 29.9318C22.1714 29.958 22.4259 29.9042 22.6464 29.7781L25.925 27.8838C26.1466 27.7562 26.3222 27.5619 26.4269 27.3286C26.5315 27.0953 26.5599 26.8349 26.5079 26.5845L26.01 24.156C25.8614 23.3231 26.0074 22.4644 26.4229 21.7274C26.848 20.9542 27.5445 20.3659 28.3779 20.076L30.7093 19.2988C30.9505 19.2174 31.1599 19.0622 31.3081 18.8552C31.4563 18.6482 31.5357 18.3998 31.535 18.1453V14.2717C31.5357 14.0171 31.4563 13.7688 31.3081 13.5618C31.1599 13.3548 30.9505 13.1996 30.7093 13.1181L28.3779 12.341C27.5445 12.051 26.848 11.4627 26.4229 10.6895C26.0074 9.95252 25.8614 9.09387 26.01 8.26097L26.5079 5.8324C26.5599 5.58204 26.5315 5.32165 26.4269 5.08835C26.3222 4.85504 26.1466 4.66073 25.925 4.53311L22.6464 2.63883C22.4259 2.51273 22.1714 2.45896 21.9187 2.4851C21.666 2.51124 21.4279 2.61597 21.2379 2.78454L18.7121 4.9824C18.5904 5.0907 18.4481 5.17339 18.2937 5.22555C18.1393 5.2777 17.9761 5.29825 17.8136 5.28597C17.2841 5.24476 16.7523 5.24476 16.2229 5.28597C15.8836 5.30984 15.5484 5.20099 15.2879 4.9824L12.7621 2.74811C12.5721 2.57954 12.334 2.47481 12.0813 2.44867C11.8286 2.42253 11.5741 2.4763 11.3536 2.6024L8.075 4.49668C7.85342 4.6243 7.67778 4.81861 7.57312 5.05192C7.46846 5.28522 7.44012 5.54561 7.49214 5.79597L7.99 8.22454C8.13857 9.05745 7.9926 9.91609 7.57714 10.6531C7.15021 11.447 6.4388 12.0499 5.58571 12.341L3.25428 13.1181C3.0131 13.1996 2.80362 13.3548 2.65545 13.5618C2.50728 13.7688 2.42791 14.0171 2.42857 14.2717V18.0603C2.42791 18.3148 2.50728 18.5632 2.65545 18.7702C2.80362 18.9772 3.0131 19.1324 3.25428 19.2138L5.58571 19.991C6.41705 20.2779 7.11321 20.8617 7.54071 21.6303C7.95617 22.3673 8.10214 23.2259 7.95357 24.0588L7.45571 26.4874C7.40369 26.7378 7.43203 26.9981 7.53669 27.2314C7.64135 27.4648 7.81699 27.6591 8.03857 27.7867L11.3171 29.681C11.5377 29.8071 11.7922 29.8608 12.0449 29.8347C12.2976 29.8086 12.5357 29.7038 12.7257 29.5353L15.2393 27.301C15.361 27.1927 15.5033 27.11 15.6577 27.0578C15.8121 27.0057 15.9754 26.9851 16.1379 26.9974C16.6673 27.0386 17.1991 27.0386 17.7286 26.9974L17.8743 27.0945Z" fill="white"/>
<path d="M16.9999 22.2375C15.7991 22.2375 14.6252 21.8814 13.6268 21.2142C12.6284 20.5471 11.8502 19.5989 11.3906 18.4895C10.9311 17.3801 10.8109 16.1593 11.0451 14.9816C11.2794 13.8038 11.8576 12.722 12.7068 11.8729C13.5559 11.0238 14.6377 10.4455 15.8154 10.2113C16.9932 9.977 18.2139 10.0972 19.3233 10.5568C20.4327 11.0163 21.381 11.7945 22.0481 12.7929C22.7152 13.7914 23.0713 14.9652 23.0713 16.166C23.0713 17.7763 22.4317 19.3206 21.293 20.4592C20.1544 21.5978 18.6101 22.2375 16.9999 22.2375ZM16.9999 12.5232C16.2794 12.5232 15.5751 12.7368 14.976 13.1371C14.377 13.5374 13.9101 14.1063 13.6343 14.772C13.3586 15.4376 13.2865 16.1701 13.427 16.8767C13.5676 17.5834 13.9145 18.2325 14.424 18.7419C14.9335 19.2514 15.5826 19.5983 16.2892 19.7389C16.9959 19.8795 17.7283 19.8073 18.394 19.5316C19.0596 19.2559 19.6285 18.789 20.0288 18.1899C20.4291 17.5908 20.6428 16.8865 20.6428 16.166C20.6428 15.1999 20.259 14.2733 19.5758 13.5901C18.8926 12.907 17.966 12.5232 16.9999 12.5232Z" fill="white"/>
</svg>
