<svg width="264" height="182" viewBox="0 0 264 182" fill="none" xmlns="http://www.w3.org/2000/svg">
    <path d="M0 0H204.666L243.868 152.702L0 181.951V0Z" fill="#55AAD3"/>
    <path d="M184.61 99.3704C184.078 98.2308 183.395 97.2432 182.483 96.4075C181.647 95.5718 180.584 94.9641 179.368 94.5842C178.153 94.2043 177.013 94.0524 175.798 94.1284C174.658 94.2043 173.518 94.5082 172.531 95.04C171.543 95.5718 170.632 96.3315 169.796 97.3951C168.96 98.3828 168.352 99.6743 167.897 101.118C167.441 102.637 167.213 104.005 167.289 105.296C167.365 106.588 167.669 107.727 168.2 108.791C168.732 109.854 169.492 110.69 170.404 111.45C171.315 112.21 172.379 112.741 173.594 113.121C174.81 113.501 175.95 113.577 177.165 113.425C178.381 113.197 179.52 112.817 180.584 112.21C181.647 111.602 182.559 110.766 183.395 109.854C184.23 108.867 184.838 107.803 185.218 106.588C185.598 105.372 185.75 104.157 185.598 102.941C185.37 101.65 185.066 100.434 184.61 99.3704Z" fill="#FBDA85"/>
    <path d="M58.9541 48.2417C58.4223 47.1781 57.5866 46.1905 56.6749 45.3548C55.7633 44.5191 54.6237 43.9113 53.4082 43.5315C52.1926 43.1516 50.9011 42.9997 49.6096 43.1516C48.3941 43.3036 47.1785 43.6074 46.1149 44.1392C45.0513 44.671 44.0637 45.5067 43.228 46.4184C42.3924 47.406 41.7846 48.4696 41.4047 49.7611L38.5178 58.8777L56.7509 64.7274L59.6378 55.6109C60.0177 54.3953 60.1696 53.1038 60.0177 51.8123C59.8657 50.5208 59.4859 49.3053 58.9541 48.2417Z" fill="#FBDA85"/>
    <path d="M0 0V73.0843L216.746 142.75L264 0H0ZM68.678 58.4219L59.9413 85.7715L50.8247 82.8846L53.7117 73.7681L35.4786 67.9183L32.5917 77.0348L23.4751 74.1479L32.2118 46.7983C33.0475 44.2912 34.263 42.0881 35.9344 40.1888C37.6058 38.2895 39.505 36.7701 41.6322 35.6305C43.8354 34.4909 46.1905 33.8072 48.6976 33.5793C51.2046 33.3514 53.7876 33.5793 56.2947 34.415C58.8017 35.2506 61.0049 36.4662 62.9042 38.1376C64.8035 39.8089 66.3229 41.7082 67.4624 43.9114C68.602 46.1145 69.2858 48.4696 69.5137 50.9767C69.7416 53.4078 69.5137 55.9148 68.678 58.4219ZM94.5082 96.7873L92.9128 91.9252C92.0012 92.305 91.0895 92.6849 90.1019 92.9888C89.1142 93.2927 88.1266 93.5206 87.139 93.6725C86.1514 93.8245 85.1637 93.8245 84.1001 93.7485C83.1125 93.7485 82.1249 93.5206 81.2132 93.2167C79.086 92.5329 77.2627 91.5453 75.6673 90.2538C74.0719 88.8863 72.7804 87.3669 71.7928 85.5436C70.8811 83.7203 70.2734 81.745 70.1214 79.5419C69.9695 77.3387 70.2734 74.9836 71.0331 72.5525L77.0348 53.7117L85.6955 56.4466L79.6938 75.2875C79.314 76.427 79.162 77.4906 79.238 78.5542C79.314 79.5419 79.5419 80.4535 79.9217 81.2892C80.3016 82.1249 80.8334 82.8086 81.5171 83.3404C82.2009 83.9482 83.0365 84.3281 83.9482 84.6319C84.8599 84.9358 85.7715 85.0118 86.6832 84.8599C87.5948 84.7079 88.5065 84.3281 89.3422 83.8722C90.1778 83.4164 90.8616 82.7327 91.4694 82.0489C92.0771 81.2892 92.5329 80.4535 92.8368 79.5419L98.8386 60.701L107.499 63.436L96.6354 97.4711L94.5082 96.7873ZM133.709 109.323L124.973 106.512L131.202 87.063H131.278C131.582 86.1514 131.658 85.3157 131.582 84.404C131.506 83.4924 131.278 82.6567 130.822 81.821C130.443 81.0613 129.911 80.3776 129.227 79.7698C128.543 79.162 127.784 78.7062 126.872 78.4783C125.96 78.1744 125.049 78.0984 124.137 78.1744C123.225 78.2504 122.39 78.4783 121.554 78.9341C120.794 79.314 120.111 79.9217 119.503 80.6055C118.895 81.2892 118.515 82.0489 118.211 82.9606L111.982 102.409L103.321 99.6742L118.515 52.0403L127.176 54.7752L122.314 69.8176C123.605 69.3617 124.821 69.1338 126.036 69.2098C127.252 69.2098 128.391 69.4377 129.607 69.7416C131.734 70.4253 133.557 71.4129 135.153 72.8564C136.748 74.2239 138.04 75.8193 138.875 77.6426C139.787 79.4659 140.395 81.4411 140.547 83.5683C140.775 85.6955 140.547 87.7468 139.863 89.874L133.709 109.323ZM139.939 111.298L155.133 63.6639L163.87 66.4748L148.676 114.109L139.939 111.298ZM188.333 126.644L186.205 125.96L184.306 120.186C183.243 120.642 182.103 121.098 180.963 121.478C179.824 121.858 178.684 122.086 177.545 122.238C176.405 122.39 175.19 122.39 174.05 122.314C172.911 122.238 171.771 122.01 170.707 121.706C168.276 120.946 166.149 119.807 164.326 118.363C162.502 116.92 160.983 115.096 159.919 113.121C158.856 111.07 158.172 108.791 158.02 106.284C157.792 103.777 158.172 101.118 159.084 98.2308C159.919 95.5718 161.135 93.2927 162.806 91.3934C164.402 89.4941 166.301 87.9747 168.352 86.8351C170.479 85.7715 172.683 85.0878 175.038 84.9358C177.469 84.7079 179.824 85.0118 182.255 85.7715C183.395 86.1514 184.382 86.6072 185.37 87.215C186.357 87.8227 187.269 88.5824 188.181 89.3422C189.016 90.1778 189.852 91.0135 190.536 92.0012C191.296 92.9888 191.903 93.9764 192.435 94.964L197.069 92.0012L199.197 92.6849L188.333 126.644Z" fill="#FBDA85"/>
</svg> 